<svg width="54" height="24" viewBox="0 0 54 24" fill="none" xmlns="http://www.w3.org/2000/svg">
<g clip-path="url(#clip0_114_698)">
<path d="M20.465 0.307368L13.4088 17.1406H8.80539L5.33297 3.70611C5.12244 2.88063 4.93949 2.57684 4.29886 2.22779C3.2517 1.65895 1.52244 1.12695 0.00244141 0.796L0.104968 0.307368H7.51634C8.45949 0.307368 9.30876 0.935368 9.52476 2.02274L11.3595 11.7644L15.8892 0.307368H20.465ZM26.6881 0.307368L23.0875 17.1406H18.7321L22.3332 0.307368H26.6881ZM38.502 11.6446C38.5201 7.20274 32.3601 6.95621 32.4003 4.97158C32.4151 4.36821 32.9898 3.72589 34.2479 3.56168C34.8711 3.48105 36.5928 3.41684 38.5429 4.31537L39.3058 0.743579C38.258 0.364632 36.9096 0 35.2323 0C30.9271 0 27.8987 2.28674 27.8744 5.56379C27.8462 7.98779 30.0376 9.33874 31.6856 10.1461C33.3831 10.9705 33.9523 11.5004 33.9445 12.2373C33.9323 13.3667 32.5888 13.8667 31.3397 13.8853C29.1494 13.92 27.8797 13.2933 26.8669 12.8215L26.0763 16.5116C27.0953 16.9785 28.9732 17.3842 30.9182 17.4048C35.4951 17.4048 38.4885 15.1442 38.502 11.6446ZM49.8704 17.1408H53.8972L50.3793 0.307368H46.6641C45.8262 0.307368 45.122 0.793684 44.8096 1.54126L38.2749 17.1406H42.8481L43.7553 14.6261H49.3427L49.8704 17.1408ZM45.0094 11.1768L47.3024 4.85537L48.6197 11.1768H45.0094ZM32.262 21.7743H30.4923V23.4213H32.4717V23.9164H29.8961V19.3474H32.3702V19.8425H30.4923V21.2861H32.2618L32.262 21.7743ZM33.386 19.1036H33.9822V23.9162H33.386V19.1036ZM35.4867 22.3842C35.5001 23.1912 36.0088 23.5232 36.6117 23.5232C37.0391 23.5232 37.3033 23.4486 37.5205 23.3539L37.6288 23.7811C37.4187 23.8758 37.0528 23.9909 36.5304 23.9909C35.5208 23.9909 34.9176 23.32 34.9176 22.3301C34.9176 21.3406 35.5001 20.5676 36.4561 20.5676C37.534 20.5676 37.8119 21.5034 37.8119 22.1065C37.8119 22.2284 37.805 22.3164 37.7913 22.3844L35.4867 22.3842ZM37.2355 21.9573C37.2424 21.5846 37.0797 20.9947 36.4085 20.9947C35.7984 20.9947 35.5408 21.5438 35.4932 21.9573H37.2355ZM41.0574 23.8011C40.9016 23.8758 40.5557 23.9912 40.1153 23.9912C39.1256 23.9912 38.4816 23.32 38.4816 22.3166C38.4816 21.3065 39.1728 20.5678 40.2439 20.5678C40.5963 20.5678 40.9081 20.6556 41.0709 20.744L40.9357 21.1981C40.7928 21.1236 40.5692 21.0419 40.2439 21.0419C39.4913 21.0419 39.085 21.6046 39.085 22.2829C39.085 23.0419 39.573 23.5097 40.2237 23.5097C40.5627 23.5097 40.7862 23.4284 40.9557 23.3539L41.0574 23.8011ZM42.7307 19.8491V20.6354H43.5845V21.0893H42.7307V22.8587C42.7307 23.2659 42.846 23.496 43.178 23.496C43.3405 23.496 43.4357 23.4827 43.5239 23.4552L43.5511 23.9099C43.4357 23.9503 43.2528 23.9909 43.0222 23.9909C42.7441 23.9909 42.5203 23.896 42.3782 23.7404C42.2155 23.5571 42.1477 23.2659 42.1477 22.8794V21.0893H41.6391V20.6354H42.1477V20.0253L42.7307 19.8491ZM44.4176 21.6592C44.4176 21.2726 44.4104 20.9406 44.3904 20.6354H44.9125L44.9399 21.2859H44.9597C45.1092 20.8457 45.4749 20.5676 45.8747 20.5676C45.9359 20.5676 45.9835 20.5745 46.0378 20.5811V21.144C45.9768 21.1301 45.9159 21.1301 45.834 21.1301C45.4142 21.1301 45.1155 21.4419 45.0344 21.8897C45.0205 21.9816 45.0136 22.0746 45.014 22.1676V23.9166H44.4176V21.6592ZM49.7041 22.2486C49.7041 23.4621 48.8565 23.9909 48.0704 23.9909C47.189 23.9909 46.4978 23.34 46.4978 22.3032C46.4978 21.2116 47.2231 20.5678 48.1248 20.5678C49.0669 20.5678 49.7041 21.2518 49.7041 22.2486ZM47.1077 22.2829C47.1077 23.0015 47.5144 23.544 48.0974 23.544C48.6671 23.544 49.0938 23.008 49.0938 22.2693C49.0938 21.7135 48.8159 21.0149 48.1109 21.0149C47.413 21.0149 47.1077 21.6661 47.1077 22.2829ZM50.6182 21.5236C50.6182 21.1781 50.6111 20.9067 50.5909 20.6358H51.1197L51.1536 21.1781H51.1671C51.3298 20.8728 51.7094 20.568 52.2517 20.568C52.7056 20.568 53.4109 20.8392 53.4109 21.964V23.9166H52.8144V22.0253C52.8144 21.4968 52.6178 21.0558 52.0553 21.0558C51.6688 21.0558 51.3635 21.3339 51.2555 21.6659C51.2281 21.7406 51.2147 21.8421 51.2147 21.944V23.9166H50.6182V21.5236Z" fill="#1A1F71"/>
</g>
<defs>
<clipPath id="clip0_114_698">
<rect width="53.9" height="24" fill="white"/>
</clipPath>
</defs>
</svg>
