<svg width="31" height="24" viewBox="0 0 31 24" fill="none" xmlns="http://www.w3.org/2000/svg">
<g clip-path="url(#clip0_114_693)">
<path d="M5.61576 23.8808V22.2923C5.61576 21.6833 5.24502 21.2863 4.60956 21.2863C4.2919 21.2863 3.9477 21.3921 3.70938 21.7363C3.52414 21.4451 3.25941 21.2863 2.86227 21.2863C2.59742 21.2863 2.33282 21.3656 2.12092 21.6569V21.3392H1.56494V23.8808H2.12092V22.4776C2.12092 22.0276 2.35923 21.8157 2.72997 21.8157C3.10046 21.8157 3.28595 22.054 3.28595 22.4776V23.8808H3.84193V22.4776C3.84193 22.0276 4.10653 21.8157 4.45073 21.8157C4.82146 21.8157 5.00671 22.054 5.00671 22.4776V23.8808H5.61576ZM13.8494 21.3392H12.9494V20.5714H12.3934V21.3392H11.8904V21.8421H12.3933V23.0071C12.3933 23.5896 12.6316 23.9337 13.2671 23.9337C13.5054 23.9337 13.77 23.8544 13.9555 23.7485L13.7965 23.2719C13.6377 23.3777 13.4524 23.4043 13.32 23.4043C13.0553 23.4043 12.9494 23.2454 12.9494 22.9806V21.8421H13.8494V21.3392ZM18.5621 21.2861C18.2445 21.2861 18.0327 21.4451 17.9003 21.6569V21.3392H17.3443V23.8808H17.9003V22.4512C17.9003 22.0276 18.0855 21.7893 18.4297 21.7893C18.5356 21.7893 18.668 21.8158 18.7739 21.8422L18.9327 21.3128C18.8269 21.2863 18.668 21.2863 18.5621 21.2863M11.4403 21.5511C11.1754 21.3657 10.8048 21.2864 10.4077 21.2864C9.77234 21.2864 9.34878 21.604 9.34878 22.1071C9.34878 22.5308 9.66645 22.7689 10.2224 22.8484L10.4872 22.875C10.7784 22.9278 10.9372 23.0073 10.9372 23.1397C10.9372 23.3249 10.7255 23.4573 10.3547 23.4573C9.98412 23.4573 9.69286 23.3249 9.50749 23.1926L9.24277 23.6162C9.53403 23.828 9.93117 23.9338 10.3282 23.9338C11.0695 23.9338 11.4932 23.5898 11.4932 23.1131C11.4932 22.6631 11.149 22.4247 10.6195 22.3454L10.3547 22.3189C10.1164 22.2923 9.93117 22.2395 9.93117 22.0807C9.93117 21.8953 10.1164 21.7894 10.4077 21.7894C10.7255 21.7894 11.0431 21.9217 11.202 22.0012L11.4403 21.5511ZM26.2135 21.2864C25.8958 21.2864 25.684 21.4452 25.5516 21.657V21.3393H24.9956V23.8809H25.5516V22.4513C25.5516 22.0277 25.7369 21.7894 26.081 21.7894C26.187 21.7894 26.3194 21.8159 26.4253 21.8423L26.5842 21.3129C26.4783 21.2864 26.3194 21.2864 26.2135 21.2864ZM19.1181 22.6101C19.1181 23.3779 19.6476 23.9338 20.4684 23.9338C20.839 23.9338 21.1037 23.8545 21.3684 23.6427L21.1037 23.1926C20.8919 23.3515 20.6802 23.4308 20.4418 23.4308C19.9918 23.4308 19.6741 23.1131 19.6741 22.6101C19.6741 22.1336 19.9918 21.8158 20.4418 21.7894C20.6802 21.7894 20.8919 21.8688 21.1037 22.0277L21.3684 21.5776C21.1037 21.3657 20.839 21.2864 20.4684 21.2864C19.6476 21.2864 19.1181 21.8424 19.1181 22.6101ZM24.2544 22.6101V21.3393H23.6984V21.657C23.513 21.4188 23.2483 21.2864 22.9041 21.2864C22.1893 21.2864 21.6333 21.8424 21.6333 22.6101C21.6333 23.3779 22.1893 23.9338 22.9041 23.9338C23.2747 23.9338 23.5395 23.8015 23.6984 23.5632V23.8809H24.2544V22.6101ZM22.2157 22.6101C22.2157 22.16 22.5069 21.7894 22.9834 21.7894C23.4335 21.7894 23.7513 22.1336 23.7513 22.6101C23.7513 23.0602 23.4335 23.4308 22.9834 23.4308C22.5069 23.4043 22.2157 23.0602 22.2157 22.6101ZM15.5704 21.2864C14.8291 21.2864 14.2995 21.8158 14.2995 22.6101C14.2995 23.4044 14.829 23.9338 15.5969 23.9338C15.9675 23.9338 16.3382 23.828 16.6295 23.5898L16.3646 23.1926C16.1528 23.3515 15.8881 23.4573 15.6234 23.4573C15.2792 23.4573 14.935 23.2985 14.8555 22.8483H16.7354V22.6366C16.7619 21.8158 16.2854 21.2864 15.5704 21.2864ZM15.5703 21.7629C15.9144 21.7629 16.1528 21.9748 16.2057 22.3719H14.8819C14.9349 22.0277 15.1732 21.7629 15.5703 21.7629ZM29.3639 22.6101V20.3332H28.808V21.657C28.6226 21.4188 28.3579 21.2864 28.0137 21.2864C27.2989 21.2864 26.7429 21.8424 26.7429 22.6101C26.7429 23.3779 27.2989 23.9338 28.0137 23.9338C28.3844 23.9338 28.6491 23.8015 28.808 23.5632V23.8809H29.3639V22.6101ZM27.3254 22.6101C27.3254 22.16 27.6165 21.7894 28.0931 21.7894C28.5432 21.7894 28.8609 22.1336 28.8609 22.6101C28.8609 23.0602 28.5432 23.4308 28.0931 23.4308C27.6165 23.4043 27.3254 23.0602 27.3254 22.6101ZM8.73961 22.6101V21.3393H8.18364V21.657C7.99827 21.4188 7.73354 21.2864 7.38934 21.2864C6.67453 21.2864 6.11855 21.8424 6.11855 22.6101C6.11855 23.3779 6.67453 23.9338 7.38934 23.9338C7.76008 23.9338 8.0248 23.8015 8.18364 23.5632V23.8809H8.73961V22.6101ZM6.67453 22.6101C6.67453 22.16 6.96579 21.7894 7.44229 21.7894C7.89238 21.7894 8.21017 22.1336 8.21017 22.6101C8.21017 23.0602 7.89238 23.4308 7.44229 23.4308C6.96579 23.4043 6.67453 23.0602 6.67453 22.6101Z" fill="black"/>
<path d="M11.2549 2.03861H19.5946V17.0237H11.2549V2.03861Z" fill="#FF5F00"/>
<path d="M11.7845 9.5312C11.7845 6.48657 13.2141 3.78603 15.4115 2.03861C13.7967 0.76782 11.7581 6.10352e-05 9.53419 6.10352e-05C4.2654 6.10352e-05 0.00292969 4.26253 0.00292969 9.5312C0.00292969 14.7997 4.2654 19.0623 9.53407 19.0623C11.758 19.0623 13.7965 18.2946 15.4115 17.0237C13.2141 15.3028 11.7845 12.5758 11.7845 9.5312Z" fill="#EB001B"/>
<path d="M30.8466 9.5312C30.8466 14.7997 26.5841 19.0623 21.3155 19.0623C19.0915 19.0623 17.053 18.2946 15.438 17.0237C17.6619 15.2764 19.0651 12.5758 19.0651 9.5312C19.0651 6.48657 17.6354 3.78603 15.438 2.03861C17.0529 0.76782 19.0915 6.10352e-05 21.3155 6.10352e-05C26.5841 6.10352e-05 30.8466 4.28907 30.8466 9.5312Z" fill="#F79E1B"/>
</g>
<defs>
<clipPath id="clip0_114_693">
<rect width="30.88" height="24" fill="white"/>
</clipPath>
</defs>
</svg>
