<svg width="24" height="24" viewBox="0 0 24 24" fill="none" xmlns="http://www.w3.org/2000/svg">
<path d="M16.1354 17.4254L12.5239 13.8125C12.3919 13.6804 12.2359 13.6564 12.1519 13.6564C12.0679 13.6564 11.9119 13.6804 11.78 13.8125L8.15639 17.4374C7.74844 17.8455 7.11252 18.5057 4.98877 18.5057L9.44024 22.9469C10.1152 23.6212 11.03 24 11.9839 24C12.9378 24 13.8527 23.6212 14.5276 22.9469L18.9911 18.4937C17.8992 18.4937 16.9873 18.2777 16.1354 17.4254ZM8.15639 6.56256L11.78 10.1875C11.8759 10.2835 12.0199 10.3436 12.1519 10.3436C12.2839 10.3436 12.4279 10.2835 12.5239 10.1875L16.1114 6.59857C16.9633 5.71034 17.9352 5.50629 19.0271 5.50629L14.5636 1.05311C13.8887 0.37877 12.9738 0 12.0199 0C11.066 0 10.1512 0.37877 9.47623 1.05311L5.02477 5.49428C7.13651 5.49428 7.78444 6.19047 8.15639 6.56256Z" fill="#004080"/>
<path d="M22.9261 9.41936L20.2264 6.70664H18.7146C18.0667 6.70664 17.4188 6.97071 16.9748 7.43883L13.3752 11.0398C13.0393 11.3759 12.5953 11.5439 12.1514 11.5439C11.6942 11.5375 11.2567 11.3572 10.9275 11.0398L7.30396 7.40282C6.84802 6.9467 6.22409 6.68263 5.56417 6.68263H3.80038L1.05271 9.44336C0.378625 10.1185 0 11.0338 0 11.988C0 12.9423 0.378625 13.8575 1.05271 14.5327L3.80038 17.2934H5.57617C6.22409 17.2934 6.84802 17.0294 7.31596 16.5732L10.9395 12.9483C11.2755 12.6122 11.7194 12.4442 12.1634 12.4442C12.6073 12.4442 13.0513 12.6122 13.3872 12.9483L16.9988 16.5612C17.4548 17.0174 18.0787 17.2814 18.7386 17.2814H20.2504L22.9501 14.5687C23.627 13.8814 24.0045 12.954 24 11.9891C23.9955 11.0242 23.6094 10.1003 22.9261 9.41936Z" fill="#004080"/>
</svg>
