
<svg width="35" height="35" viewBox="0 0 35 35" fill="none" xmlns="http://www.w3.org/2000/svg">
<path d="M5.37683 16.4399C5.2376 16.3083 5.07382 16.2054 4.89484 16.1372C4.71586 16.0689 4.52519 16.0365 4.33371 16.042C4.14223 16.0474 3.95369 16.0905 3.77885 16.1687C3.60402 16.247 3.44632 16.359 3.31475 16.4982C3.18318 16.6374 3.08032 16.8012 3.01205 16.9802C2.94378 17.1592 2.91143 17.3498 2.91684 17.5413C2.92226 17.7328 2.96534 17.9213 3.04362 18.0962C3.1219 18.271 3.23385 18.4287 3.37308 18.5603L16.4981 30.9561C16.7688 31.2121 17.1273 31.3547 17.5 31.3547C17.8726 31.3547 18.2311 31.2121 18.5018 30.9561L31.6283 18.5603C31.7706 18.4296 31.8855 18.2719 31.9663 18.0964C32.0471 17.921 32.0923 17.7312 32.0991 17.5381C32.106 17.345 32.0744 17.1525 32.0062 16.9717C31.9381 16.791 31.8347 16.6255 31.702 16.4851C31.5694 16.3446 31.4101 16.2319 31.2336 16.1535C31.057 16.0751 30.8666 16.0325 30.6735 16.0283C30.4803 16.0241 30.2883 16.0583 30.1084 16.129C29.9286 16.1996 29.7646 16.3053 29.626 16.4399L17.5 27.8907L5.37683 16.4399Z" fill="#FF0000"/>
</svg>
